<svg width="171" height="43" viewBox="0 0 171 43" fill="none" xmlns="http://www.w3.org/2000/svg">
<rect x="0.5" y="5" width="33" height="33" rx="7.5" fill="#252825" stroke="#F2E8CF"/>
<path d="M15.0733 16.3571C15.0733 16.8303 14.6893 17.2143 14.2161 17.2143C13.743 17.2143 13.359 16.8303 13.359 16.3571C13.359 15.884 13.743 15.5 14.2161 15.5C14.6893 15.5 15.0733 15.884 15.0733 16.3571ZM20.2161 15.5C20.6893 15.5 21.0733 15.884 21.0733 16.3571C21.0733 16.8303 20.6893 17.2143 20.2161 17.2143C19.743 17.2143 19.359 16.8303 19.359 16.3571C19.359 15.884 19.743 15.5 20.2161 15.5ZM18.5019 18.0714C18.5019 18.7263 17.751 19.4266 17.397 19.7206C17.2916 19.808 17.1416 19.808 17.0361 19.7206C16.6813 19.4266 15.9304 18.7263 15.9304 18.0714C15.9304 17.5983 16.5064 17.2143 17.2161 17.2143C17.9259 17.2143 18.5019 17.5983 18.5019 18.0714Z" fill="#F2E8CF"/>
<path d="M26.6447 31.7857H18.1667C22.5981 29.7569 24.3184 26.0009 22.5364 20.6746C23.4956 19.4951 24.0733 17.9926 24.0733 16.3571C24.0733 12.5763 20.997 9.5 17.2161 9.5C13.4353 9.5 10.359 12.5763 10.359 16.3571C10.359 17.4834 10.6376 18.5454 11.121 19.484C8.54614 20.9283 5.51443 24.4331 7.81757 32.8691C7.92471 33.2574 8.28043 33.5 8.64471 33.5H26.6447C27.1187 33.5 27.5019 33.1169 27.5019 32.6429C27.5019 32.1689 27.1187 31.7857 26.6447 31.7857ZM12.0733 16.3571C12.0733 14.7586 13.3513 13.7857 14.6447 13.7857C15.7487 13.7857 16.6899 14.462 17.0893 15.4211C17.1356 15.5326 17.2959 15.5326 17.343 15.4211C17.7424 14.462 18.6836 13.7857 19.7876 13.7857C21.0801 13.7857 22.359 14.7534 22.359 16.3571C22.359 19.1934 20.0524 21.5 17.2161 21.5C14.3799 21.5 12.0733 19.1934 12.0733 16.3571ZM13.7147 22.2423C14.7407 22.8551 15.9364 23.2143 17.2161 23.2143C18.6784 23.2143 20.0327 22.7506 21.147 21.9671C22.9719 28.6563 17.709 31.2526 10.7901 31.7154C13.1747 28.9897 14.1536 25.8183 13.7147 22.2423Z" fill="#F2E8CF"/>
<path d="M20.6447 24.9286C20.6447 25.6246 20.0687 26.2143 19.359 26.2143C18.6493 26.2143 18.0733 25.6246 18.0733 24.9286H20.6447ZM17.2161 24.9286C17.2161 25.6246 16.6401 26.2143 15.9304 26.2143C15.2207 26.2143 14.6447 25.6246 14.6447 24.9286H17.2161ZM18.0733 27.5C18.0733 28.196 17.4973 28.7857 16.7876 28.7857C16.0779 28.7857 15.5019 28.196 15.5019 27.5H18.0733Z" fill="#F2E8CF"/>
<path d="M49.82 31.721H44.86V12.098H53.602C55.5653 12.098 57.136 12.3357 58.314 12.811C59.492 13.2863 60.3393 14.0613 60.856 15.136C61.3727 16.2107 61.631 17.6677 61.631 19.507C61.631 21.243 61.3727 22.6587 60.856 23.754C60.3393 24.8287 59.492 25.6243 58.314 26.141C57.136 26.6577 55.5653 26.916 53.602 26.916H49.82V31.721ZM52.796 16.159H49.82V22.855H52.796C54.2633 22.855 55.245 22.607 55.741 22.111C56.237 21.615 56.485 20.747 56.485 19.507C56.485 18.329 56.237 17.4817 55.741 16.965C55.245 16.4277 54.2633 16.159 52.796 16.159ZM69.2253 31.721H64.2653V10.858H69.2253V31.721ZM78.6888 16.469C80.6728 16.469 82.2744 16.6757 83.4938 17.089C84.7131 17.5023 85.6018 18.267 86.1598 19.383C86.7384 20.4783 87.0277 22.0697 87.0277 24.157V31.721H82.5328L82.3778 30.295H82.2848C81.8921 30.8117 81.2824 31.225 80.4558 31.535C79.6291 31.845 78.5544 32 77.2318 32C73.6564 32 71.8688 30.326 71.8688 26.978C71.8688 25.552 72.3338 24.436 73.2638 23.63C74.2144 22.8033 75.7024 22.39 77.7278 22.39H82.3158C82.1711 21.522 81.7991 20.9433 81.1998 20.654C80.6004 20.344 79.5774 20.189 78.1308 20.189C77.2214 20.189 76.3224 20.2613 75.4338 20.406C74.5658 20.53 73.8011 20.6747 73.1397 20.84L73.0468 20.778L73.0778 17.182C73.4911 17.058 74.0181 16.9443 74.6588 16.841C75.2994 16.717 75.9711 16.624 76.6738 16.562C77.3971 16.5 78.0688 16.469 78.6888 16.469ZM78.5028 28.342C79.7841 28.342 80.7451 28.187 81.3858 27.877C82.0264 27.5463 82.3571 27.0297 82.3778 26.327V25.552H78.8748C77.9654 25.552 77.3248 25.6863 76.9528 25.955C76.6014 26.203 76.4258 26.544 76.4258 26.978C76.4258 27.4947 76.6118 27.8563 76.9838 28.063C77.3558 28.249 77.8621 28.342 78.5028 28.342ZM95.2302 31.721H90.2702V16.624H94.9822L95.2302 19.383H95.3232C95.6125 18.453 96.1292 17.74 96.8732 17.244C97.6172 16.7273 98.6505 16.469 99.9732 16.469C101.771 16.469 103.094 16.9753 103.941 17.988C104.809 19.0007 105.243 20.7573 105.243 23.258V31.721H100.283L100.252 24.219C100.252 23.0617 100.076 22.235 99.7252 21.739C99.3738 21.243 98.7125 20.995 97.7412 20.995C96.8318 20.995 96.1912 21.2223 95.8192 21.677C95.4472 22.111 95.2508 22.8653 95.2302 23.94V31.721ZM118.194 23.568C117.905 24.994 117.605 26.389 117.295 27.753C116.985 29.117 116.654 30.4397 116.303 31.721H110.94L107.096 16.624H112.242C112.531 18.174 112.821 19.786 113.11 21.46C113.399 23.134 113.658 24.777 113.885 26.389H113.947C114.257 24.777 114.588 23.134 114.939 21.46C115.311 19.786 115.683 18.174 116.055 16.624H120.395C120.767 18.174 121.129 19.786 121.48 21.46C121.852 23.134 122.193 24.777 122.503 26.389H122.565C122.792 24.777 123.051 23.134 123.34 21.46C123.629 19.786 123.919 18.174 124.208 16.624H129.416L125.572 31.721H120.209C119.878 30.4397 119.537 29.117 119.186 27.753C118.855 26.389 118.545 24.994 118.256 23.568H118.194ZM136.274 11.013C136.336 11.757 136.367 12.377 136.367 12.873C136.367 13.1623 136.357 13.462 136.336 13.772C136.336 14.0613 136.316 14.392 136.274 14.764C135.84 14.8467 135.417 14.9087 135.003 14.95C134.59 14.9913 134.177 15.012 133.763 15.012C133.371 15.012 132.968 14.9913 132.554 14.95C132.162 14.9087 131.759 14.8467 131.345 14.764C131.304 14.4127 131.273 14.0923 131.252 13.803C131.232 13.493 131.221 13.1933 131.221 12.904C131.221 12.6353 131.232 12.346 131.252 12.036C131.273 11.726 131.304 11.385 131.345 11.013C131.759 10.9097 132.172 10.8477 132.585 10.827C133.019 10.7857 133.443 10.765 133.856 10.765C134.249 10.765 134.642 10.7857 135.034 10.827C135.448 10.8477 135.861 10.9097 136.274 11.013ZM136.274 31.721H131.314V16.624H136.274V31.721ZM139.025 27.443C140.637 27.8977 142.424 28.125 144.388 28.125C145.338 28.125 146.051 28.094 146.527 28.032C147.002 27.97 147.322 27.8667 147.488 27.722C147.653 27.5773 147.736 27.381 147.736 27.133C147.736 26.7817 147.601 26.5647 147.333 26.482C147.085 26.3993 146.578 26.2857 145.814 26.141L143.365 25.676C141.794 25.366 140.657 24.8803 139.955 24.219C139.273 23.537 138.932 22.5243 138.932 21.181C138.932 19.3623 139.469 18.1223 140.544 17.461C141.639 16.7997 143.375 16.469 145.752 16.469C147.178 16.469 148.428 16.5517 149.503 16.717C150.598 16.8617 151.507 17.0477 152.231 17.275L152.169 21.026L152.076 21.119C150.402 20.5817 148.573 20.313 146.589 20.313C145.617 20.313 144.935 20.3853 144.543 20.53C144.171 20.654 143.985 20.9123 143.985 21.305C143.985 21.5117 144.036 21.677 144.14 21.801C144.264 21.925 144.532 22.049 144.946 22.173C145.359 22.2763 146.01 22.4107 146.899 22.576L149.162 23.01C150.422 23.2787 151.352 23.723 151.952 24.343C152.551 24.963 152.851 25.9447 152.851 27.288C152.851 28.466 152.634 29.4063 152.2 30.109C151.766 30.791 151.032 31.2767 149.999 31.566C148.986 31.8553 147.581 32 145.783 32C144.419 32 143.158 31.938 142.001 31.814C140.864 31.6693 139.841 31.504 138.932 31.318V27.505L139.025 27.443ZM168.778 31.225C168.199 31.4317 167.393 31.6177 166.36 31.783C165.347 31.9277 164.138 32 162.733 32C160.956 32 159.437 31.7727 158.176 31.318C156.936 30.8427 155.996 30.047 155.355 28.931C154.714 27.7943 154.394 26.2237 154.394 24.219C154.394 21.491 155.014 19.5173 156.254 18.298C157.515 17.0787 159.457 16.469 162.082 16.469C163.963 16.469 165.44 16.7377 166.515 17.275C167.61 17.8123 168.385 18.577 168.84 19.569C169.315 20.5403 169.553 21.6977 169.553 23.041C169.553 23.4337 169.532 23.8573 169.491 24.312C169.47 24.7667 169.419 25.211 169.336 25.645L169.212 25.769H159.013C159.158 26.6783 159.581 27.2777 160.284 27.567C161.007 27.8563 162.175 28.001 163.787 28.001C164.862 28.001 165.75 27.9803 166.453 27.939C167.176 27.877 167.91 27.7943 168.654 27.691L168.778 27.784V31.225ZM165.244 22.514C165.244 22.018 165.161 21.5943 164.996 21.243C164.851 20.871 164.552 20.592 164.097 20.406C163.642 20.1993 162.971 20.096 162.082 20.096C160.78 20.096 159.922 20.3233 159.509 20.778C159.116 21.212 158.92 21.7907 158.92 22.514H165.244Z" fill="#F2E8CF"/>
</svg>
