<svg width="170" height="43" viewBox="0 0 170 43" fill="none" xmlns="http://www.w3.org/2000/svg">
<rect y="5.5" width="32" height="32" rx="7" fill="#F2E8CF"/>
<path d="M14.0733 16.3571C14.0733 16.8303 13.6893 17.2143 13.2161 17.2143C12.743 17.2143 12.359 16.8303 12.359 16.3571C12.359 15.884 12.743 15.5 13.2161 15.5C13.6893 15.5 14.0733 15.884 14.0733 16.3571ZM19.2161 15.5C19.6893 15.5 20.0733 15.884 20.0733 16.3571C20.0733 16.8303 19.6893 17.2143 19.2161 17.2143C18.743 17.2143 18.359 16.8303 18.359 16.3571C18.359 15.884 18.743 15.5 19.2161 15.5ZM17.5019 18.0714C17.5019 18.7263 16.751 19.4266 16.397 19.7206C16.2916 19.808 16.1416 19.808 16.0361 19.7206C15.6813 19.4266 14.9304 18.7263 14.9304 18.0714C14.9304 17.5983 15.5064 17.2143 16.2161 17.2143C16.9259 17.2143 17.5019 17.5983 17.5019 18.0714Z" fill="#386641"/>
<path d="M25.6447 31.7857H17.1667C21.5981 29.7569 23.3184 26.0009 21.5364 20.6746C22.4956 19.4951 23.0733 17.9926 23.0733 16.3571C23.0733 12.5763 19.997 9.5 16.2161 9.5C12.4353 9.5 9.359 12.5763 9.359 16.3571C9.359 17.4834 9.63757 18.5454 10.121 19.484C7.54614 20.9283 4.51443 24.4331 6.81757 32.8691C6.92471 33.2574 7.28043 33.5 7.64471 33.5H25.6447C26.1187 33.5 26.5019 33.1169 26.5019 32.6429C26.5019 32.1689 26.1187 31.7857 25.6447 31.7857ZM11.0733 16.3571C11.0733 14.7586 12.3513 13.7857 13.6447 13.7857C14.7487 13.7857 15.6899 14.462 16.0893 15.4211C16.1356 15.5326 16.2959 15.5326 16.343 15.4211C16.7424 14.462 17.6836 13.7857 18.7876 13.7857C20.0801 13.7857 21.359 14.7534 21.359 16.3571C21.359 19.1934 19.0524 21.5 16.2161 21.5C13.3799 21.5 11.0733 19.1934 11.0733 16.3571ZM12.7147 22.2423C13.7407 22.8551 14.9364 23.2143 16.2161 23.2143C17.6784 23.2143 19.0327 22.7506 20.147 21.9671C21.9719 28.6563 16.709 31.2526 9.79014 31.7154C12.1747 28.9897 13.1536 25.8183 12.7147 22.2423Z" fill="#386641"/>
<path d="M19.6447 24.9286C19.6447 25.6246 19.0687 26.2143 18.359 26.2143C17.6493 26.2143 17.0733 25.6246 17.0733 24.9286H19.6447ZM16.2161 24.9286C16.2161 25.6246 15.6401 26.2143 14.9304 26.2143C14.2207 26.2143 13.6447 25.6246 13.6447 24.9286H16.2161ZM17.0733 27.5C17.0733 28.196 16.4973 28.7857 15.7876 28.7857C15.0779 28.7857 14.5019 28.196 14.5019 27.5H17.0733Z" fill="#386641"/>
<path d="M48.82 31.721H43.86V12.098H52.602C54.5653 12.098 56.136 12.3357 57.314 12.811C58.492 13.2863 59.3393 14.0613 59.856 15.136C60.3727 16.2107 60.631 17.6677 60.631 19.507C60.631 21.243 60.3727 22.6587 59.856 23.754C59.3393 24.8287 58.492 25.6243 57.314 26.141C56.136 26.6577 54.5653 26.916 52.602 26.916H48.82V31.721ZM51.796 16.159H48.82V22.855H51.796C53.2633 22.855 54.245 22.607 54.741 22.111C55.237 21.615 55.485 20.747 55.485 19.507C55.485 18.329 55.237 17.4817 54.741 16.965C54.245 16.4277 53.2633 16.159 51.796 16.159ZM68.2253 31.721H63.2653V10.858H68.2253V31.721ZM77.6888 16.469C79.6728 16.469 81.2744 16.6757 82.4938 17.089C83.7131 17.5023 84.6018 18.267 85.1598 19.383C85.7384 20.4783 86.0277 22.0697 86.0277 24.157V31.721H81.5328L81.3778 30.295H81.2848C80.8921 30.8117 80.2824 31.225 79.4558 31.535C78.6291 31.845 77.5544 32 76.2318 32C72.6564 32 70.8688 30.326 70.8688 26.978C70.8688 25.552 71.3338 24.436 72.2638 23.63C73.2144 22.8033 74.7024 22.39 76.7278 22.39H81.3158C81.1711 21.522 80.7991 20.9433 80.1998 20.654C79.6004 20.344 78.5774 20.189 77.1308 20.189C76.2214 20.189 75.3224 20.2613 74.4338 20.406C73.5658 20.53 72.8011 20.6747 72.1397 20.84L72.0468 20.778L72.0778 17.182C72.4911 17.058 73.0181 16.9443 73.6588 16.841C74.2994 16.717 74.9711 16.624 75.6738 16.562C76.3971 16.5 77.0688 16.469 77.6888 16.469ZM77.5028 28.342C78.7841 28.342 79.7451 28.187 80.3858 27.877C81.0264 27.5463 81.3571 27.0297 81.3778 26.327V25.552H77.8748C76.9654 25.552 76.3248 25.6863 75.9528 25.955C75.6014 26.203 75.4258 26.544 75.4258 26.978C75.4258 27.4947 75.6118 27.8563 75.9838 28.063C76.3558 28.249 76.8621 28.342 77.5028 28.342ZM94.2302 31.721H89.2702V16.624H93.9822L94.2302 19.383H94.3232C94.6125 18.453 95.1292 17.74 95.8732 17.244C96.6172 16.7273 97.6505 16.469 98.9732 16.469C100.771 16.469 102.094 16.9753 102.941 17.988C103.809 19.0007 104.243 20.7573 104.243 23.258V31.721H99.2832L99.2522 24.219C99.2522 23.0617 99.0765 22.235 98.7252 21.739C98.3738 21.243 97.7125 20.995 96.7412 20.995C95.8318 20.995 95.1912 21.2223 94.8192 21.677C94.4472 22.111 94.2508 22.8653 94.2302 23.94V31.721ZM117.194 23.568C116.905 24.994 116.605 26.389 116.295 27.753C115.985 29.117 115.654 30.4397 115.303 31.721H109.94L106.096 16.624H111.242C111.531 18.174 111.821 19.786 112.11 21.46C112.399 23.134 112.658 24.777 112.885 26.389H112.947C113.257 24.777 113.588 23.134 113.939 21.46C114.311 19.786 114.683 18.174 115.055 16.624H119.395C119.767 18.174 120.129 19.786 120.48 21.46C120.852 23.134 121.193 24.777 121.503 26.389H121.565C121.792 24.777 122.051 23.134 122.34 21.46C122.629 19.786 122.919 18.174 123.208 16.624H128.416L124.572 31.721H119.209C118.878 30.4397 118.537 29.117 118.186 27.753C117.855 26.389 117.545 24.994 117.256 23.568H117.194ZM135.274 11.013C135.336 11.757 135.367 12.377 135.367 12.873C135.367 13.1623 135.357 13.462 135.336 13.772C135.336 14.0613 135.316 14.392 135.274 14.764C134.84 14.8467 134.417 14.9087 134.003 14.95C133.59 14.9913 133.177 15.012 132.763 15.012C132.371 15.012 131.968 14.9913 131.554 14.95C131.162 14.9087 130.759 14.8467 130.345 14.764C130.304 14.4127 130.273 14.0923 130.252 13.803C130.232 13.493 130.221 13.1933 130.221 12.904C130.221 12.6353 130.232 12.346 130.252 12.036C130.273 11.726 130.304 11.385 130.345 11.013C130.759 10.9097 131.172 10.8477 131.585 10.827C132.019 10.7857 132.443 10.765 132.856 10.765C133.249 10.765 133.642 10.7857 134.034 10.827C134.448 10.8477 134.861 10.9097 135.274 11.013ZM135.274 31.721H130.314V16.624H135.274V31.721ZM138.025 27.443C139.637 27.8977 141.424 28.125 143.388 28.125C144.338 28.125 145.051 28.094 145.527 28.032C146.002 27.97 146.322 27.8667 146.488 27.722C146.653 27.5773 146.736 27.381 146.736 27.133C146.736 26.7817 146.601 26.5647 146.333 26.482C146.085 26.3993 145.578 26.2857 144.814 26.141L142.365 25.676C140.794 25.366 139.657 24.8803 138.955 24.219C138.273 23.537 137.932 22.5243 137.932 21.181C137.932 19.3623 138.469 18.1223 139.544 17.461C140.639 16.7997 142.375 16.469 144.752 16.469C146.178 16.469 147.428 16.5517 148.503 16.717C149.598 16.8617 150.507 17.0477 151.231 17.275L151.169 21.026L151.076 21.119C149.402 20.5817 147.573 20.313 145.589 20.313C144.617 20.313 143.935 20.3853 143.543 20.53C143.171 20.654 142.985 20.9123 142.985 21.305C142.985 21.5117 143.036 21.677 143.14 21.801C143.264 21.925 143.532 22.049 143.946 22.173C144.359 22.2763 145.01 22.4107 145.899 22.576L148.162 23.01C149.422 23.2787 150.352 23.723 150.952 24.343C151.551 24.963 151.851 25.9447 151.851 27.288C151.851 28.466 151.634 29.4063 151.2 30.109C150.766 30.791 150.032 31.2767 148.999 31.566C147.986 31.8553 146.581 32 144.783 32C143.419 32 142.158 31.938 141.001 31.814C139.864 31.6693 138.841 31.504 137.932 31.318V27.505L138.025 27.443ZM167.778 31.225C167.199 31.4317 166.393 31.6177 165.36 31.783C164.347 31.9277 163.138 32 161.733 32C159.956 32 158.437 31.7727 157.176 31.318C155.936 30.8427 154.996 30.047 154.355 28.931C153.714 27.7943 153.394 26.2237 153.394 24.219C153.394 21.491 154.014 19.5173 155.254 18.298C156.515 17.0787 158.457 16.469 161.082 16.469C162.963 16.469 164.44 16.7377 165.515 17.275C166.61 17.8123 167.385 18.577 167.84 19.569C168.315 20.5403 168.553 21.6977 168.553 23.041C168.553 23.4337 168.532 23.8573 168.491 24.312C168.47 24.7667 168.419 25.211 168.336 25.645L168.212 25.769H158.013C158.158 26.6783 158.581 27.2777 159.284 27.567C160.007 27.8563 161.175 28.001 162.787 28.001C163.862 28.001 164.75 27.9803 165.453 27.939C166.176 27.877 166.91 27.7943 167.654 27.691L167.778 27.784V31.225ZM164.244 22.514C164.244 22.018 164.161 21.5943 163.996 21.243C163.851 20.871 163.552 20.592 163.097 20.406C162.642 20.1993 161.971 20.096 161.082 20.096C159.78 20.096 158.922 20.3233 158.509 20.778C158.116 21.212 157.92 21.7907 157.92 22.514H164.244Z" fill="#0D062D"/>
</svg>
