<svg width="32" height="32" viewBox="0 0 32 32" fill="none" xmlns="http://www.w3.org/2000/svg">
<rect width="32" height="32" rx="7" fill="#386641"/>
<path d="M14.7106 12.8504C14.7106 13.185 14.439 13.4566 14.1043 13.4566C13.7696 13.4566 13.498 13.185 13.498 12.8504C13.498 12.5157 13.7696 12.2441 14.1043 12.2441C14.439 12.2441 14.7106 12.5157 14.7106 12.8504ZM18.3484 12.2441C18.683 12.2441 18.9547 12.5157 18.9547 12.8504C18.9547 13.185 18.683 13.4566 18.3484 13.4566C18.0137 13.4566 17.7421 13.185 17.7421 12.8504C17.7421 12.5157 18.0137 12.2441 18.3484 12.2441ZM17.1358 14.0629C17.1358 14.5262 16.6047 15.0215 16.3543 15.2295C16.2797 15.2913 16.1736 15.2913 16.099 15.2295C15.848 15.0215 15.3169 14.5262 15.3169 14.0629C15.3169 13.7283 15.7243 13.4566 16.2263 13.4566C16.7283 13.4566 17.1358 13.7283 17.1358 14.0629Z" fill="#FFFCF2"/>
<path d="M22.8956 23.7637H16.8987C20.0332 22.3286 21.2501 19.6718 19.9896 15.9043C20.668 15.07 21.0767 14.0072 21.0767 12.8504C21.0767 10.176 18.9007 8 16.2263 8C13.552 8 11.376 10.176 11.376 12.8504C11.376 13.647 11.573 14.3982 11.915 15.0621C10.0937 16.0837 7.94919 18.5629 9.5783 24.53C9.65409 24.8047 9.9057 24.9762 10.1634 24.9762H22.8956C23.2308 24.9762 23.5019 24.7052 23.5019 24.37C23.5019 24.0347 23.2308 23.7637 22.8956 23.7637ZM12.5886 12.8504C12.5886 11.7196 13.4925 11.0315 14.4074 11.0315C15.1883 11.0315 15.8541 11.5098 16.1366 12.1883C16.1693 12.2671 16.2827 12.2671 16.3161 12.1883C16.5986 11.5098 17.2643 11.0315 18.0452 11.0315C18.9595 11.0315 19.8641 11.716 19.8641 12.8504C19.8641 14.8566 18.2325 16.4881 16.2263 16.4881C14.2201 16.4881 12.5886 14.8566 12.5886 12.8504ZM13.7496 17.0132C14.4753 17.4467 15.3211 17.7007 16.2263 17.7007C17.2607 17.7007 18.2186 17.3727 19.0068 16.8186C20.2976 21.5501 16.5749 23.3865 11.6809 23.7139C13.3676 21.7859 14.06 19.5426 13.7496 17.0132Z" fill="#FFFCF2"/>
<path d="M18.6515 18.9133C18.6515 19.4056 18.2441 19.8227 17.7421 19.8227C17.24 19.8227 16.8326 19.4056 16.8326 18.9133H18.6515ZM16.2263 18.9133C16.2263 19.4056 15.8189 19.8227 15.3169 19.8227C14.8149 19.8227 14.4074 19.4056 14.4074 18.9133H16.2263ZM16.8326 20.7322C16.8326 21.2245 16.4252 21.6416 15.9232 21.6416C15.4212 21.6416 15.0137 21.2245 15.0137 20.7322H16.8326Z" fill="#FFFCF2"/>
</svg>
